<?xml version="1.0" standalone="no"?>
<!DOCTYPE svg PUBLIC "-//W3C//DTD SVG 20010904//EN"
 "http://www.w3.org/TR/2001/REC-SVG-20010904/DTD/svg10.dtd">
<svg version="1.0" xmlns="http://www.w3.org/2000/svg"
 width="959.000000pt" height="959.000000pt" viewBox="0 0 959.000000 959.000000"
 preserveAspectRatio="xMidYMid meet">
<metadata>
Created by potrace 1.11, written by Peter Selinger 2001-2013
</metadata>
<g transform="translate(0.000000,959.000000) scale(0.100000,-0.100000)"
fill="#000000" stroke="none">
<path d="M5444 8952 c5 -8 -5 -12 -31 -13 -21 0 -47 -2 -58 -4 -11 -3 -45 -7
-75 -11 -30 -3 -64 -8 -75 -10 -11 -3 -38 -7 -60 -10 -22 -3 -47 -8 -55 -11
-8 -2 -33 -7 -55 -9 -22 -3 -47 -8 -55 -11 -8 -4 -22 -7 -30 -9 -28 -3 -75
-13 -115 -24 -22 -6 -51 -13 -65 -16 -14 -3 -65 -16 -115 -30 -49 -14 -97 -27
-106 -29 -9 -2 -39 -11 -65 -20 -27 -9 -56 -18 -64 -20 -8 -2 -15 -4 -15 -5 0
-1 -7 -3 -15 -5 -17 -3 -107 -32 -130 -42 -8 -3 -17 -7 -20 -8 -33 -8 -118
-40 -127 -48 -7 -5 -13 -7 -13 -3 0 4 -19 -3 -42 -15 -24 -12 -44 -21 -45 -21
-3 2 -29 -6 -68 -21 -16 -7 -33 -11 -37 -9 -5 1 -8 -2 -8 -6 0 -4 -17 -14 -37
-21 -21 -8 -63 -25 -93 -39 -30 -15 -57 -27 -60 -27 -43 -12 -60 -19 -60 -26
0 -5 -6 -9 -12 -9 -16 0 -345 -157 -358 -170 -3 -3 -27 -16 -55 -30 -27 -14
-51 -28 -53 -32 -2 -5 -8 -8 -14 -8 -9 0 -95 -46 -177 -95 -9 -5 -55 -32 -101
-60 -47 -27 -89 -53 -95 -57 -5 -5 -64 -43 -130 -85 -66 -43 -122 -80 -125
-83 -3 -3 -25 -19 -50 -35 -25 -17 -49 -34 -55 -38 -93 -73 -195 -144 -199
-139 -3 3 -6 0 -6 -5 0 -6 -24 -30 -52 -52 -52 -41 -111 -89 -151 -123 -11
-10 -24 -18 -29 -18 -5 0 -6 -4 -3 -10 3 -5 2 -10 -4 -10 -5 0 -25 -16 -45
-35 -20 -19 -36 -33 -36 -30 0 6 -289 -285 -353 -354 -26 -28 -47 -55 -47 -59
0 -4 -9 -14 -20 -22 -11 -8 -20 -18 -20 -22 0 -4 -16 -24 -35 -45 -19 -21 -35
-43 -35 -50 0 -6 -4 -13 -8 -15 -10 -4 -97 -120 -97 -130 0 -3 -10 -18 -23
-32 -12 -15 -22 -31 -22 -36 0 -6 -7 -10 -17 -10 -9 0 -14 -3 -10 -6 5 -5 0
-13 -51 -72 -12 -15 -26 -32 -30 -37 -35 -48 -67 -91 -72 -95 -4 -3 -21 -26
-38 -52 -18 -25 -38 -53 -44 -60 -24 -25 -58 -77 -58 -88 0 -5 -3 -10 -7 -10
-5 0 -26 -28 -48 -63 -22 -34 -43 -63 -47 -65 -5 -2 -8 -8 -8 -13 0 -5 -18
-38 -40 -74 -44 -72 -98 -184 -125 -260 -10 -27 -23 -56 -28 -62 -5 -7 -6 -13
-3 -13 4 0 1 -12 -8 -27 -16 -31 -54 -129 -58 -153 -2 -8 -10 -20 -18 -27 -8
-7 -12 -13 -8 -13 4 0 3 -12 -3 -27 -24 -59 -50 -128 -53 -138 -4 -13 -15 -41
-37 -92 -10 -24 -16 -43 -14 -43 2 0 -7 -25 -20 -55 -14 -30 -22 -55 -20 -55
3 0 0 -10 -7 -22 -6 -13 -13 -27 -14 -33 -2 -9 -109 -333 -122 -365 -3 -8 -6
-18 -7 -22 -2 -5 -4 -10 -5 -13 -1 -3 -3 -8 -4 -12 -1 -5 -5 -14 -9 -20 -5 -7
-6 -13 -3 -13 3 0 -3 -24 -14 -54 -10 -30 -16 -57 -13 -60 4 -3 0 -6 -7 -6 -7
0 -11 -3 -8 -6 3 -3 -5 -43 -17 -90 -13 -46 -21 -84 -18 -84 3 0 1 -6 -5 -12
-9 -12 -29 -88 -37 -143 -2 -11 -9 -42 -15 -70 -14 -62 -17 -74 -24 -116 -3
-19 -7 -43 -10 -54 -2 -11 -7 -45 -10 -76 -4 -31 -9 -67 -12 -80 -3 -13 -7
-100 -9 -194 -5 -252 20 -381 105 -540 33 -62 48 -87 103 -168 6 -11 19 -27
27 -37 8 -10 31 -38 50 -62 42 -52 152 -161 200 -197 19 -14 42 -33 51 -41 37
-32 49 -40 59 -40 5 0 10 -4 10 -10 0 -5 7 -10 15 -10 8 0 15 -4 15 -10 0 -5
4 -10 10 -10 5 0 34 -16 65 -35 30 -20 55 -32 55 -28 0 4 4 4 8 -2 10 -15 49
-35 67 -35 8 0 15 -4 15 -10 0 -5 5 -10 10 -10 6 0 27 -7 48 -17 20 -9 39 -17
42 -18 3 -1 18 -7 33 -13 16 -7 34 -12 41 -12 6 0 16 -4 21 -9 6 -6 22 -12 37
-15 14 -2 35 -9 45 -14 10 -6 32 -12 48 -15 17 -3 50 -12 75 -20 25 -8 47 -15
50 -15 3 0 16 -3 30 -6 14 -3 37 -8 53 -11 15 -3 39 -7 55 -10 15 -3 36 -7 47
-10 11 -2 22 -5 25 -5 3 -1 23 -5 45 -11 22 -5 51 -12 65 -14 14 -3 36 -8 50
-11 14 -3 25 -5 25 -4 0 1 13 -4 29 -10 16 -6 47 -13 69 -16 22 -2 44 -7 49
-10 5 -3 24 -8 41 -11 18 -2 53 -10 79 -18 25 -7 49 -11 52 -8 3 4 6 0 6 -7 0
-7 3 -11 6 -8 3 3 31 0 63 -8 32 -7 70 -16 84 -19 15 -3 38 -7 52 -10 13 -3
35 -9 47 -14 13 -4 29 -6 36 -4 6 3 12 1 12 -4 0 -4 10 -9 23 -9 12 -1 54 -9
92 -18 39 -10 81 -19 95 -22 14 -3 40 -9 58 -15 18 -6 43 -12 55 -14 26 -5 62
-13 62 -15 0 -1 12 -3 26 -5 14 -2 45 -9 70 -15 24 -7 52 -14 62 -16 10 -2 27
-6 37 -9 10 -3 31 -8 46 -10 30 -5 65 -12 74 -15 3 -1 10 -3 15 -4 6 -1 21 -5
35 -9 14 -4 36 -9 50 -12 14 -3 45 -9 70 -15 25 -6 56 -13 70 -16 14 -3 43
-10 65 -16 22 -5 49 -12 60 -13 11 -2 47 -10 80 -18 100 -26 209 -50 225 -52
9 0 21 -4 28 -9 6 -4 12 -4 12 0 0 3 7 1 15 -6 8 -7 15 -10 15 -7 0 3 17 1 38
-4 20 -6 51 -12 67 -16 50 -9 60 -11 60 -14 0 -1 9 -3 20 -5 11 -2 49 -10 85
-19 36 -9 79 -19 95 -21 17 -3 37 -8 45 -11 8 -3 20 -7 25 -8 6 -1 12 -3 15
-5 3 -1 19 -4 35 -5 17 -2 30 -4 30 -5 0 -1 6 -3 50 -14 82 -19 105 -23 105
-19 0 3 6 1 13 -5 6 -5 32 -13 57 -18 51 -9 59 -11 63 -14 1 -1 11 -3 22 -5
11 -2 29 -5 40 -8 26 -7 116 -28 136 -32 8 -2 44 -10 80 -19 35 -9 75 -18 89
-20 14 -3 25 -5 25 -6 0 -1 11 -3 25 -4 14 -2 34 -7 45 -13 11 -6 30 -9 43 -8
12 1 22 -2 22 -7 0 -5 5 -6 10 -3 6 4 17 1 25 -5 8 -7 15 -10 15 -7 0 3 17 1
38 -4 20 -5 48 -12 62 -15 14 -3 43 -10 65 -16 22 -5 51 -12 65 -14 14 -3 33
-7 42 -10 9 -3 25 -7 36 -9 10 -2 67 -15 126 -29 59 -14 116 -26 127 -26 10 0
19 -5 19 -11 0 -5 4 -8 8 -5 5 3 35 -2 68 -10 32 -8 68 -16 79 -18 11 -2 60
-13 108 -25 49 -11 103 -24 120 -27 40 -7 48 -9 67 -17 8 -4 29 -8 45 -11 17
-2 30 -5 30 -6 0 -1 12 -3 27 -4 15 -2 33 -8 41 -14 8 -7 16 -9 19 -6 3 3 32
-2 64 -10 33 -8 70 -17 84 -20 14 -3 62 -14 108 -25 45 -10 82 -17 82 -14 0 3
6 1 13 -5 6 -5 32 -13 57 -18 51 -9 59 -11 63 -14 3 -3 48 -11 75 -13 12 -1
22 -6 22 -10 0 -5 6 -7 13 -4 6 2 22 0 35 -4 21 -8 39 -12 102 -25 14 -3 39
-9 55 -13 88 -26 89 -25 115 42 14 34 25 64 25 67 1 3 6 15 13 27 7 13 10 23
6 23 -3 0 -1 6 5 13 6 8 8 17 4 20 -3 4 -1 7 5 7 7 0 11 3 10 8 -1 4 5 21 12
37 7 17 14 35 15 40 0 6 7 24 13 40 34 84 57 141 57 145 0 3 6 14 12 25 6 11
11 22 11 25 0 3 6 21 15 41 8 20 18 47 22 60 4 13 16 44 27 69 11 24 21 49 22
55 2 5 10 27 19 49 9 21 17 44 17 50 0 6 7 20 15 30 8 11 15 28 15 38 0 10 4
26 9 36 23 45 110 261 115 287 2 6 10 28 20 49 9 22 19 50 22 63 4 13 10 23
16 23 5 0 7 4 4 8 -3 5 1 19 8 33 7 13 13 26 13 29 4 16 15 45 104 270 19 47
34 87 35 90 0 3 6 19 13 35 48 116 71 183 70 199 0 5 4 12 9 15 9 5 33 61 46
106 2 6 8 24 15 40 7 17 24 59 37 95 29 74 36 91 58 142 9 20 16 43 16 52 0 9
5 16 12 16 6 0 8 3 5 6 -3 4 -2 15 4 26 6 11 12 29 14 40 3 12 8 24 12 27 8 6
15 27 16 49 0 6 4 12 9 12 4 0 8 8 8 18 0 10 5 23 12 30 7 7 9 12 5 12 -4 0 1
17 12 39 11 21 17 41 14 45 -4 3 -1 6 5 6 7 0 11 3 10 8 -1 4 13 45 31 92 58
151 83 214 96 245 19 46 60 149 60 155 1 12 69 176 78 188 5 6 6 12 2 12 -4 0
-2 7 5 15 7 8 9 15 6 15 -4 0 -1 12 7 28 16 29 88 210 91 227 1 6 7 19 13 30
6 11 12 25 13 30 1 6 9 26 17 45 8 19 16 42 18 50 2 8 4 17 5 20 1 3 2 8 1 13
0 4 3 7 8 7 5 0 12 12 16 28 6 26 123 329 147 382 6 14 13 34 15 44 2 11 7 24
12 30 4 6 19 43 32 81 13 39 26 72 29 75 3 3 12 25 20 50 8 25 17 47 20 50 3
3 12 25 20 50 7 25 17 50 20 55 4 6 16 35 26 65 10 30 23 58 27 61 5 3 8 8 7
10 -2 5 4 21 47 134 19 50 36 95 37 100 3 12 14 39 55 135 17 38 27 70 23 70
-4 0 -2 4 3 8 10 7 53 92 52 102 -1 3 6 19 15 35 25 47 51 114 51 130 0 8 3
15 6 15 5 0 30 69 36 100 1 3 10 32 20 65 10 33 20 65 21 70 1 6 9 46 19 90
21 98 24 120 28 165 2 19 6 40 9 45 7 12 2 362 -6 420 -3 22 -8 51 -12 65 -3
14 -8 34 -10 45 -2 11 -9 45 -16 75 -6 30 -11 58 -10 63 1 4 -3 7 -8 7 -6 0
-10 9 -10 20 0 47 -95 218 -169 304 -80 92 -265 256 -290 256 -5 0 -11 4 -13
9 -2 7 -75 55 -163 108 -23 14 -187 96 -195 98 -3 0 -27 11 -54 23 -27 12 -53
22 -57 22 -5 0 -17 4 -27 9 -60 31 -268 101 -276 94 -3 -4 -6 -1 -6 5 0 7 -9
12 -20 12 -12 0 -34 7 -50 15 -17 9 -30 13 -30 11 0 -3 -26 4 -57 15 -32 11
-68 20 -80 21 -13 2 -23 5 -23 9 0 3 -7 6 -15 6 -8 0 -34 5 -57 13 -69 20 -73
21 -75 21 -2 0 -21 6 -44 14 -23 9 -51 17 -63 20 -27 5 -137 35 -156 43 -8 3
-18 6 -22 7 -5 2 -9 3 -10 5 -2 1 -10 3 -19 5 -9 1 -43 11 -75 21 -33 9 -67
19 -77 21 -9 1 -42 12 -72 22 -30 11 -55 17 -55 15 0 -2 -13 2 -30 11 -16 8
-33 14 -37 14 -4 -1 -15 1 -23 4 -31 13 -166 58 -189 63 -13 3 -32 9 -41 14
-10 5 -34 12 -54 15 -20 3 -53 8 -73 11 -21 3 -66 7 -100 8 -35 0 -63 3 -63 6
0 3 -11 5 -25 5 -14 0 -25 -4 -25 -9 0 -5 -6 -5 -12 0 -7 5 -33 8 -58 7 -25
-2 -54 -3 -65 -2 -34 1 -37 1 -150 -7 -60 -4 -132 -7 -160 -7 -56 0 -167 11
-173 18 -3 2 -13 0 -23 -5 -11 -7 -20 -7 -24 0 -6 10 -352 12 -369 3 -14 -9
-100 -8 -115 1 -10 6 -12 5 -7 -2z"/>
</g>
</svg>
